<?xml version="1.0" encoding="utf-8"?>
<!-- Generator: Adobe Illustrator 16.0.0, SVG Export Plug-In . SVG Version: 6.00 Build 0)  -->
<!DOCTYPE svg PUBLIC "-//W3C//DTD SVG 1.1//EN" "http://www.w3.org/Graphics/SVG/1.1/DTD/svg11.dtd">
<svg version="1.1" id="Layer_1" xmlns="http://www.w3.org/2000/svg" xmlns:xlink="http://www.w3.org/1999/xlink" x="0px" y="0px"
	 width="190px" height="37px" viewBox="0 202.621 504 98.744" enable-background="new 0 202.621 504 98.744"
	 xml:space="preserve">
<title>Fichier 1</title>
<g id="_x34_137a52d-e1cb-4e1f-8f42-e68a8f1db0e1">
	<g id="_x38_4a5987c-ade7-4ccb-8d40-2368a77d5d61">
		<path fill="#FA372C" d="M45.836,243.131c-5.98,0.151-11.561,3.032-15.148,7.818c-0.557-1.087-1.265-2.09-2.101-2.98
			c-2.919-3.1-6.981-4.866-11.239-4.887c-5.014,0.063-9.797,2.121-13.292,5.717v-4.887H0v37.529h4.056v-26.533
			c2.837-4.68,7.825-7.632,13.292-7.868c3.115,0.037,6.08,1.343,8.209,3.616c2.29,2.719,3.414,6.23,3.127,9.773v21.158h4.056
			v-21.256c0.029-1.639-0.102-3.275-0.391-4.887c2.763-4.992,7.932-8.179,13.633-8.405c3.115,0.037,6.08,1.343,8.209,3.616
			c2.272,2.726,3.378,6.237,3.079,9.773v21.158h4.056v-21.256c0.314-4.486-1.162-8.914-4.104-12.314
			C54.265,244.886,50.144,243.117,45.836,243.131z"/>
		<path fill="#FA372C" d="M85.173,243.131c-10.444-0.114-19.002,8.26-19.116,18.703c-0.003,0.281,0,0.562,0.01,0.844
			c-0.003,10.552,8.548,19.108,19.101,19.111c10.552,0.004,19.109-8.548,19.112-19.1c0-0.004,0-0.008,0-0.012
			c0.352-10.439-7.826-19.186-18.264-19.537C85.734,243.131,85.454,243.128,85.173,243.131z M85.173,278.412
			c-8.393-0.076-15.135-6.943-15.058-15.336c0.001-0.116,0.003-0.233,0.007-0.35c-0.001-8.312,6.737-15.052,15.049-15.053
			c8.312-0.001,15.052,6.736,15.053,15.049c0,0.001,0,0.002,0,0.004c0.27,8.389-6.312,15.408-14.7,15.678
			C85.407,278.408,85.29,278.41,85.173,278.412z"/>
		<polygon fill="#FA372C" points="121.04,274.601 107.064,243.913 102.715,243.913 119.867,281.49 122.262,281.49 139.414,243.913 
			135.064,243.913 		"/>
		<circle fill="#FA372C" cx="143.469" cy="232.381" r="3.616"/>
		<rect x="141.466" y="243.961" fill="#FA372C" width="4.056" height="37.529"/>
		<path fill="#FA372C" d="M171.323,243.131c-4.928,0.042-9.63,2.068-13.047,5.62v-4.887h-4.056v37.529h4.056v-26.533
			c2.724-4.669,7.646-7.619,13.047-7.819c3.288,0.005,6.438,1.325,8.747,3.665c2.341,2.691,3.487,6.219,3.176,9.773v21.158h4.056
			v-21.305c0.304-4.479-1.191-8.893-4.153-12.266C180.044,244.878,175.772,243.095,171.323,243.131z"/>
		<path fill="#FA372C" d="M224.293,248.213c-3.526-3.267-8.193-5.021-12.998-4.887c-10.497-0.139-19.12,8.258-19.259,18.756
			c-0.004,0.264-0.002,0.527,0.006,0.791c-0.516,10.27,7.392,19.012,17.661,19.527c0.449,0.022,0.898,0.028,1.348,0.019
			c4.884-0.002,9.591-1.832,13.193-5.131v2.785c0.315,4.009-0.286,8.036-1.759,11.776c-2.409,3.972-6.854,6.242-11.483,5.864
			c-5.555,0.101-10.788-2.599-13.927-7.183l-0.684-1.125l-3.274,2.443l0.684,0.978c4,5.527,10.479,8.712,17.298,8.503
			c6.004,0.391,11.742-2.534,14.953-7.623c1.888-4.387,2.677-9.167,2.297-13.927v-35.819h-4.056V248.213z M211.1,278.412
			c-8.094,0.207-14.823-6.187-15.03-14.28c-0.012-0.452-0.002-0.905,0.028-1.356c-0.27-8.416,6.333-15.458,14.749-15.728
			c0.214-0.007,0.429-0.009,0.644-0.007c5.296-0.019,10.19,2.821,12.803,7.428v16.224c-2.61,4.859-7.727,7.844-13.242,7.721H211.1z"
			/>
		<polygon fill="#FA372C" points="293.486,264.143 283.86,241.567 276.678,241.567 266.904,264.143 257.521,241.567 
			247.064,241.567 263.337,280.269 270.52,280.269 280.244,257.742 289.969,280.269 297.152,280.269 313.424,241.567 
			303.016,241.567 		"/>
		<path fill="#FA372C" d="M347.776,244.695c-3.208-2.583-7.218-3.966-11.337-3.91c-10.759,0.398-19.17,9.421-18.812,20.182
			c-0.046,4.951,1.688,9.755,4.886,13.535c3.724,4.182,9.062,6.566,14.66,6.549c3.956,0.057,7.797-1.333,10.799-3.909v3.127h9.773
			v-38.604h-9.773L347.776,244.695z M347.386,266.732c-2.113,3.07-5.606,4.898-9.333,4.887c-5.587,0.059-10.162-4.423-10.221-10.009
			c-0.001-0.165,0.001-0.331,0.008-0.497c-0.273-5.58,4.029-10.324,9.608-10.597c0.055-0.002,0.109-0.005,0.164-0.006
			c3.856-0.048,7.498,1.773,9.773,4.887V266.732z"/>
		<rect x="371.281" y="223.634" fill="#FA372C" width="10.359" height="56.635"/>
		<path fill="#FA372C" d="M421.955,244.353c-3.114-2.407-6.963-3.667-10.897-3.567c-10.791,0.291-19.304,9.275-19.013,20.066
			c0.002,0.039,0.003,0.076,0.004,0.115c-0.041,4.951,1.692,9.753,4.887,13.535c3.723,4.182,9.061,6.566,14.659,6.549
			c3.941,0.055,7.766-1.336,10.751-3.909v3.127h9.772v-56.635h-10.163V244.353z M421.955,266.684
			c-2.114,3.07-5.606,4.898-9.334,4.887c-5.586,0.059-10.162-4.423-10.22-10.009c-0.002-0.166,0.001-0.331,0.007-0.497
			c-0.272-5.58,4.029-10.324,9.609-10.597c0.055-0.002,0.109-0.005,0.164-0.006c3.858-0.056,7.503,1.767,9.773,4.887V266.684z"/>
		<path fill="#FA372C" d="M463.295,240.785c-11.117,0.189-19.977,9.354-19.787,20.473c0.188,11.117,9.354,19.977,20.472,19.787
			c10.964-0.187,19.762-9.113,19.79-20.078c0.001-11.146-9.033-20.183-20.18-20.184
			C463.492,240.783,463.394,240.784,463.295,240.785z M463.295,271.521c-5.586,0.059-10.162-4.423-10.22-10.009
			c-0.002-0.166,0-0.331,0.007-0.497c0-5.641,4.572-10.213,10.213-10.213s10.213,4.572,10.213,10.213
			c0.189,5.584-4.184,10.263-9.767,10.452c-0.148,0.005-0.298,0.007-0.446,0.005V271.521z"/>
		<circle fill="#FA372C" cx="493.543" cy="213.078" r="10.457"/>
	</g>
</g>
</svg>
